<?xml version="1.0" encoding="utf-8"?>
<!-- Generator: Adobe Illustrator 16.0.0, SVG Export Plug-In . SVG Version: 6.00 Build 0)  -->
<!DOCTYPE svg PUBLIC "-//W3C//DTD SVG 1.1//EN" "http://www.w3.org/Graphics/SVG/1.1/DTD/svg11.dtd">
<svg version="1.1" xmlns="http://www.w3.org/2000/svg" xmlns:xlink="http://www.w3.org/1999/xlink" x="0px" y="0px"
	 width="595.28px" height="841.89px" viewBox="0 0 595.28 841.89" enable-background="new 0 0 595.28 841.89" xml:space="preserve">
<g id="Layer_1" display="none">
	<g display="inline">
		<path fill="#29ABE2" d="M387.334,384.281c-2.316-13.69-12.399-24.67-25.525-28.518c0.211-1.331,0.405-2.664,0.405-4.048
			c0,0,0,0,0-0.002c-0.004-14.148-11.476-25.622-25.622-25.622c-7.15,0-13.605,2.951-18.26,7.67
			c-1.27-3.398-4.477-5.848-8.332-5.848c-4.954,0-8.963,4.006-8.963,8.959c0,4.955,3.371,7.137,10.528,10.484
			c0.97,0.437,1.906,0.935,2.839,1.443c0.557,0.306,1.105,0.633,1.649,0.959c0.401,0.243,0.802,0.487,1.194,0.741
			c0.236,0.154,0.469,0.312,0.705,0.468c2.155,1.441,4.193,3.048,6.088,4.808c0.097,0.093,0.193,0.192,0.291,0.285
			c0.78,0.736,1.531,1.504,2.257,2.291c0.194,0.209,0.388,0.417,0.578,0.628c0.806,0.905,1.586,1.829,2.32,2.793
			c5.995,7.932,9.619,17.851,9.619,28.529s-3.624,20.597-9.619,28.529c-0.734,0.964-1.515,1.888-2.32,2.791
			c-0.19,0.213-0.384,0.422-0.578,0.631c-0.726,0.787-1.477,1.553-2.253,2.289c-0.102,0.095-0.198,0.193-0.295,0.286
			c-1.895,1.76-3.933,3.367-6.088,4.808c-0.236,0.156-0.469,0.316-0.705,0.469c-0.393,0.253-0.793,0.498-1.194,0.74
			c-0.544,0.327-1.093,0.654-1.653,0.96c-0.929,0.511-1.865,1.006-2.835,1.442c-7.157,3.349-10.528,5.529-10.528,10.484
			c0,4.953,4.009,8.959,8.963,8.959c3.855,0,7.062-2.449,8.332-5.848c4.654,4.72,11.109,7.671,18.26,7.671
			c14.146,0,25.618-11.474,25.622-25.622v-0.002c0-1.384-0.194-2.718-0.405-4.049c13.126-3.847,23.209-14.827,25.525-28.518
			c0.329-1.956,0.502-3.966,0.502-6.021S387.663,386.236,387.334,384.281z"/>
		<path fill="#29ABE2" d="M275.605,433.246c-0.97-0.437-1.907-0.932-2.835-1.442c-0.562-0.306-1.11-0.633-1.654-0.96
			c-0.401-0.242-0.802-0.487-1.194-0.74c-0.236-0.152-0.468-0.312-0.705-0.469c-2.156-1.44-4.193-3.048-6.088-4.808
			c-0.097-0.093-0.194-0.191-0.295-0.286c-0.776-0.736-1.527-1.502-2.253-2.289c-0.194-0.209-0.388-0.418-0.578-0.631
			c-0.806-0.903-1.586-1.827-2.321-2.791c-5.995-7.932-9.619-17.851-9.619-28.529s3.624-20.597,9.619-28.529
			c0.734-0.964,1.515-1.888,2.321-2.793c0.189-0.211,0.384-0.419,0.578-0.628c0.726-0.787,1.477-1.555,2.257-2.291
			c0.097-0.093,0.194-0.192,0.291-0.285c1.895-1.759,3.932-3.367,6.088-4.808c0.236-0.156,0.469-0.314,0.705-0.468
			c0.393-0.253,0.793-0.498,1.194-0.741c0.544-0.327,1.092-0.654,1.649-0.959c0.933-0.508,1.869-1.006,2.839-1.443
			c7.155-3.348,10.526-5.529,10.526-10.484c0-4.953-4.008-8.959-8.961-8.959c-3.856,0-7.062,2.449-8.333,5.848
			c-4.654-4.719-11.109-7.67-18.26-7.67c-14.146,0-25.618,11.474-25.622,25.622c0,0.002,0,0.002,0,0.002
			c0,1.384,0.194,2.717,0.405,4.048c-13.125,3.848-23.208,14.828-25.524,28.518c-0.329,1.956-0.502,3.966-0.502,6.021
			s0.173,4.065,0.502,6.021c2.316,13.691,12.399,24.671,25.524,28.518c-0.211,1.331-0.405,2.665-0.405,4.049v0.002
			c0.004,14.148,11.476,25.622,25.622,25.622c7.151,0,13.606-2.951,18.26-7.671c1.27,3.398,4.476,5.848,8.333,5.848
			c4.953,0,8.961-4.006,8.961-8.959C286.132,438.775,282.761,436.595,275.605,433.246z"/>
		<path fill="#29ABE2" d="M321.521,390.301c0-15.429-12.509-27.936-27.939-27.936c-15.424,0-27.934,12.507-27.934,27.936
			c0,15.429,12.51,27.934,27.934,27.934C309.013,418.235,321.521,405.73,321.521,390.301z"/>
	</g>
	<g display="inline">
		<path fill="#29ABE2" d="M387.334,384.281c-2.316-13.69-12.399-24.67-25.525-28.518c0.211-1.331,0.405-2.664,0.405-4.048
			c0,0,0,0,0-0.002c-0.004-14.148-11.476-25.622-25.622-25.622c-7.15,0-13.605,2.951-18.26,7.67
			c-1.27-3.398-4.477-5.848-8.332-5.848c-4.954,0-8.963,4.006-8.963,8.959c0,4.955,3.371,7.137,10.528,10.484
			c0.97,0.437,1.906,0.935,2.839,1.443c0.557,0.306,1.105,0.633,1.649,0.959c0.401,0.243,0.802,0.487,1.194,0.741
			c0.236,0.154,0.469,0.312,0.705,0.468c2.155,1.441,4.193,3.048,6.088,4.808c0.097,0.093,0.193,0.192,0.291,0.285
			c0.78,0.736,1.531,1.504,2.257,2.291c0.194,0.209,0.388,0.417,0.578,0.628c0.806,0.905,1.586,1.829,2.32,2.793
			c5.995,7.932,9.619,17.851,9.619,28.529s-3.624,20.597-9.619,28.529c-0.734,0.964-1.515,1.888-2.32,2.791
			c-0.19,0.213-0.384,0.422-0.578,0.631c-0.726,0.787-1.477,1.553-2.253,2.289c-0.102,0.095-0.198,0.193-0.295,0.286
			c-1.895,1.76-3.933,3.367-6.088,4.808c-0.236,0.156-0.469,0.316-0.705,0.469c-0.393,0.253-0.793,0.498-1.194,0.74
			c-0.544,0.327-1.093,0.654-1.653,0.96c-0.929,0.511-1.865,1.006-2.835,1.442c-7.157,3.349-10.528,5.529-10.528,10.484
			c0,4.953,4.009,8.959,8.963,8.959c3.855,0,7.062-2.449,8.332-5.848c4.654,4.72,11.109,7.671,18.26,7.671
			c14.146,0,25.618-11.474,25.622-25.622v-0.002c0-1.384-0.194-2.718-0.405-4.049c13.126-3.847,23.209-14.827,25.525-28.518
			c0.329-1.956,0.502-3.966,0.502-6.021S387.663,386.236,387.334,384.281z"/>
		<path fill="#29ABE2" d="M275.605,433.246c-0.97-0.437-1.907-0.932-2.835-1.442c-0.562-0.306-1.11-0.633-1.654-0.96
			c-0.401-0.242-0.802-0.487-1.194-0.74c-0.236-0.152-0.468-0.312-0.705-0.469c-2.156-1.44-4.193-3.048-6.088-4.808
			c-0.097-0.093-0.194-0.191-0.295-0.286c-0.776-0.736-1.527-1.502-2.253-2.289c-0.194-0.209-0.388-0.418-0.578-0.631
			c-0.806-0.903-1.586-1.827-2.321-2.791c-5.995-7.932-9.619-17.851-9.619-28.529s3.624-20.597,9.619-28.529
			c0.734-0.964,1.515-1.888,2.321-2.793c0.189-0.211,0.384-0.419,0.578-0.628c0.726-0.787,1.477-1.555,2.257-2.291
			c0.097-0.093,0.194-0.192,0.291-0.285c1.895-1.759,3.932-3.367,6.088-4.808c0.236-0.156,0.469-0.314,0.705-0.468
			c0.393-0.253,0.793-0.498,1.194-0.741c0.544-0.327,1.092-0.654,1.649-0.959c0.933-0.508,1.869-1.006,2.839-1.443
			c7.155-3.348,10.526-5.529,10.526-10.484c0-4.953-4.008-8.959-8.961-8.959c-3.856,0-7.062,2.449-8.333,5.848
			c-4.654-4.719-11.109-7.67-18.26-7.67c-14.146,0-25.618,11.474-25.622,25.622c0,0.002,0,0.002,0,0.002
			c0,1.384,0.194,2.717,0.405,4.048c-13.125,3.848-23.208,14.828-25.524,28.518c-0.329,1.956-0.502,3.966-0.502,6.021
			s0.173,4.065,0.502,6.021c2.316,13.691,12.399,24.671,25.524,28.518c-0.211,1.331-0.405,2.665-0.405,4.049v0.002
			c0.004,14.148,11.476,25.622,25.622,25.622c7.151,0,13.606-2.951,18.26-7.671c1.27,3.398,4.476,5.848,8.333,5.848
			c4.953,0,8.961-4.006,8.961-8.959C286.132,438.775,282.761,436.595,275.605,433.246z"/>
		<path fill="#29ABE2" d="M321.521,390.301c0-15.429-12.509-27.936-27.939-27.936c-15.424,0-27.934,12.507-27.934,27.936
			c0,15.429,12.51,27.934,27.934,27.934C309.013,418.235,321.521,405.73,321.521,390.301z"/>
	</g>
	<g display="inline">
		<path fill="#29ABE2" d="M178.421,499.55c0,0.404-0.18,0.674-0.449,0.898c-2.065,1.571-4.67,2.38-7.275,2.38
			c-6.466,0-11.855-5.299-11.855-11.811c0-6.557,5.389-11.99,11.855-11.99c2.604,0,5.299,0.854,7.275,2.515
			c0.809,0.674,0.359,1.842-0.628,1.842c-0.225,0-0.449-0.045-0.629-0.18c-1.617-1.213-3.862-2.111-6.018-2.111
			c-5.344,0-9.79,4.491-9.79,9.925c0,5.344,4.446,9.745,9.79,9.745c2.246,0,4.356-0.674,6.018-1.977
			C177.344,498.293,178.421,498.606,178.421,499.55z"/>
		<path fill="#29ABE2" d="M184.704,472.516c0-0.224-0.09-0.493-0.314-0.628c-0.764-0.404-0.809-0.854-0.809-1.078
			c0-1.078,1.078-1.078,1.078-1.078c0.629,0,2.111,0.584,2.111,2.784v27.304c0,0.225,0.09,0.494,0.314,0.629
			c0.763,0.404,0.808,0.853,0.808,1.077c0,1.078-1.078,1.078-1.078,1.078c-0.629,0-2.111-0.584-2.111-2.784V472.516z"/>
		<path fill="#29ABE2" d="M193.054,490.973c0-6.557,5.344-11.945,11.9-11.945c6.557,0,11.855,5.389,11.855,11.945
			s-5.299,11.855-11.855,11.855C198.398,502.828,193.054,497.529,193.054,490.973z M195.12,490.973c0,5.389,4.446,9.79,9.834,9.79
			s9.79-4.401,9.79-9.79s-4.401-9.88-9.79-9.88S195.12,485.584,195.12,490.973z"/>
		<path fill="#29ABE2" d="M239.664,498.293c-1.257,2.694-4.67,4.311-7.41,4.311c-6.646,0-10.059-3.503-10.059-10.104v-10.464
			c0-0.225-0.09-0.494-0.314-0.629c-0.763-0.403-0.808-0.853-0.808-1.077c0-1.078,1.078-1.078,1.078-1.078
			c0.629,0,2.111,0.584,2.111,2.784V492.5c0,5.479,2.604,8.128,8.038,8.128c4.176,0,7.365-3.054,7.365-7.186v-11.406
			c0-2.2,1.482-2.784,2.111-2.784c0,0,1.078,0,1.078,1.078c0,0.225-0.045,0.674-0.809,1.077c-0.224,0.135-0.314,0.404-0.314,0.629
			v17.783c0,0.225,0.09,0.494,0.314,0.629c0.764,0.404,0.809,0.853,0.809,1.077c0,1.078-1.078,1.078-1.078,1.078
			c-0.629,0-2.111-0.584-2.111-2.784V498.293z"/>
		<path fill="#29ABE2" d="M266.873,472.516c0-2.2,1.482-2.784,2.111-2.784c0,0,1.078,0,1.078,1.078c0,0.225-0.045,0.674-0.809,1.078
			c-0.225,0.135-0.314,0.404-0.314,0.628v27.304c0,0.225,0.089,0.494,0.314,0.629c0.764,0.404,0.809,0.853,0.809,1.077
			c0,1.078-1.078,1.078-1.078,1.078c-0.629,0-2.111-0.584-2.111-2.784v-2.56c-1.841,4.131-5.613,5.344-8.667,5.344
			c-6.287,0-10.643-5.568-10.643-11.945c0-6.107,4.491-11.406,10.643-11.406c3.413,0,6.377,1.033,8.667,4.805V472.516z
			 M266.873,490.254c0-4.805-3.682-8.937-8.622-8.937c-5.254,0-8.622,4.401-8.622,9.341c0,4.85,3.278,9.88,8.622,9.88
			c5.479,0,8.622-5.164,8.622-9.925V490.254z"/>
		<path fill="#29ABE2" d="M294.89,483.249c0,1.302-1.033,2.29-2.246,2.29c-0.539,0-0.988-0.135-1.392-0.404
			c-1.302-1.033-2.964-1.706-4.446-1.706c-4.131,0.045-7.499,3.502-7.499,7.544c0,3.997,3.368,7.454,7.454,7.454
			c1.527,0,3.144-0.628,4.491-1.661c0.404-0.27,0.809-0.404,1.347-0.404c1.213,0,2.291,1.033,2.291,2.29
			c0,0.674-0.404,1.258-0.943,1.707c-1.976,1.616-4.58,2.47-7.14,2.47c-6.646,0-11.945-5.299-11.945-11.855
			c0-6.602,5.344-11.945,11.9-11.945c2.65,0,5.209,0.854,7.185,2.47C294.576,481.946,294.89,482.53,294.89,483.249z"/>
		<path fill="#29ABE2" d="M313.208,499.819c-0.494,0.674-2.155,3.009-5.973,3.009c-4.535,0-8.802-3.009-8.802-7.948
			c0-5.479,4.401-7.635,9.071-7.635c1.931,0,3.817,0.449,5.568,1.303c0-4.581-1.976-5.254-4.58-5.254
			c-3.054,0-4.536,0.628-4.536,0.628c-1.392,0.494-2.829-0.403-2.829-1.841c0-1.077,0.719-1.931,1.617-2.2
			c1.706-0.494,3.457-0.854,5.523-0.854c6.196,0,9.295,2.919,9.295,7.993v10.733c0,0.494,0.18,0.718,0.404,0.853
			c0,0,0.764,0.359,0.764,1.707c0,1.347-0.988,2.29-2.335,2.29C314.6,502.604,313.253,501.57,313.208,499.819z M308.673,490.838
			c-2.74,0-5.748,0.809-5.748,4.087c0,2.38,2.245,3.547,4.355,3.547c2.649,0,5.658-1.661,5.793-4.49v-1.796
			C311.547,491.107,309.615,490.838,308.673,490.838z"/>
		<path fill="#29ABE2" d="M340.373,489.626c0-3.817-2.38-6.107-6.107-6.107c-3.413,0-6.062,2.964-6.062,5.883v9.789
			c0,2.021-1.392,3.413-3.368,3.413c-1.257,0-2.335-0.898-2.335-2.29c0-1.348,0.809-1.752,0.809-1.752
			c0.225-0.135,0.404-0.269,0.404-0.763v-13.742c0-0.493-0.18-0.628-0.404-0.763c0,0-0.809-0.404-0.809-1.752
			c0-1.392,1.078-2.29,2.335-2.29c1.842,0,3.144,1.213,3.323,3.009c1.438-1.751,4.267-3.233,6.422-3.233
			c7.229,0,10.283,3.503,10.283,10.867v7.904c0,0.494,0.18,0.628,0.404,0.763c0,0,0.809,0.404,0.809,1.752
			c0,1.392-1.078,2.29-2.335,2.29c-1.977,0-3.368-1.393-3.368-3.413V489.626z"/>
		<path fill="#29ABE2" d="M368.166,489.626c0-3.817-2.38-6.107-6.107-6.107c-3.413,0-6.062,2.964-6.062,5.883v9.789
			c0,2.021-1.392,3.413-3.368,3.413c-1.257,0-2.335-0.898-2.335-2.29c0-1.348,0.809-1.752,0.809-1.752
			c0.225-0.135,0.404-0.269,0.404-0.763v-13.742c0-0.493-0.18-0.628-0.404-0.763c0,0-0.809-0.404-0.809-1.752
			c0-1.392,1.078-2.29,2.335-2.29c1.842,0,3.144,1.213,3.323,3.009c1.438-1.751,4.267-3.233,6.422-3.233
			c7.229,0,10.283,3.503,10.283,10.867v7.904c0,0.494,0.18,0.628,0.404,0.763c0,0,0.809,0.404,0.809,1.752
			c0,1.392-1.078,2.29-2.335,2.29c-1.977,0-3.368-1.393-3.368-3.413V489.626z"/>
		<path fill="#29ABE2" d="M377.098,490.928c0-6.557,5.389-11.9,11.9-11.9c6.557,0,11.9,5.344,11.9,11.9
			c0,6.512-5.344,11.9-11.9,11.9C382.486,502.828,377.098,497.439,377.098,490.928z M381.589,490.928
			c0,4.087,3.323,7.409,7.409,7.409c4.087,0,7.41-3.322,7.41-7.409c0-4.131-3.323-7.409-7.41-7.409
			C384.912,483.519,381.589,486.797,381.589,490.928z"/>
		<path fill="#29ABE2" d="M422.315,489.626c0-3.817-2.38-6.107-6.107-6.107c-3.413,0-6.062,2.964-6.062,5.883v9.789
			c0,2.021-1.392,3.413-3.368,3.413c-1.257,0-2.335-0.898-2.335-2.29c0-1.348,0.809-1.752,0.809-1.752
			c0.225-0.135,0.404-0.269,0.404-0.763v-13.742c0-0.493-0.18-0.628-0.404-0.763c0,0-0.809-0.404-0.809-1.752
			c0-1.392,1.078-2.29,2.335-2.29c1.842,0,3.144,1.213,3.323,3.009c1.438-1.751,4.267-3.233,6.422-3.233
			c7.229,0,10.283,3.503,10.283,10.867v7.904c0,0.494,0.18,0.628,0.404,0.763c0,0,0.809,0.404,0.809,1.752
			c0,1.392-1.078,2.29-2.335,2.29c-1.977,0-3.368-1.393-3.368-3.413V489.626z"/>
	</g>
</g>
<g id="Layer_2">
	<g>
		<path fill="#FFFFFF" d="M387.334,384.281c-2.316-13.69-12.399-24.67-25.525-28.518c0.211-1.331,0.405-2.664,0.405-4.048
			c0,0,0,0,0-0.002c-0.004-14.148-11.476-25.622-25.622-25.622c-7.15,0-13.605,2.951-18.26,7.67
			c-1.27-3.398-4.477-5.848-8.332-5.848c-4.954,0-8.963,4.006-8.963,8.959c0,4.955,3.371,7.137,10.528,10.484
			c0.97,0.437,1.906,0.935,2.839,1.443c0.557,0.306,1.105,0.633,1.649,0.959c0.401,0.243,0.802,0.487,1.194,0.741
			c0.236,0.154,0.469,0.312,0.705,0.468c2.155,1.441,4.193,3.048,6.088,4.808c0.097,0.093,0.193,0.192,0.291,0.285
			c0.78,0.736,1.531,1.504,2.257,2.291c0.194,0.209,0.388,0.417,0.578,0.628c0.806,0.905,1.586,1.829,2.32,2.793
			c5.995,7.932,9.619,17.851,9.619,28.529s-3.624,20.597-9.619,28.529c-0.734,0.964-1.515,1.888-2.32,2.791
			c-0.19,0.213-0.384,0.422-0.578,0.631c-0.726,0.787-1.477,1.553-2.253,2.289c-0.102,0.095-0.198,0.193-0.295,0.286
			c-1.895,1.76-3.933,3.367-6.088,4.808c-0.236,0.156-0.469,0.316-0.705,0.469c-0.393,0.253-0.793,0.498-1.194,0.74
			c-0.544,0.327-1.093,0.654-1.653,0.96c-0.929,0.511-1.865,1.006-2.835,1.442c-7.157,3.349-10.528,5.529-10.528,10.484
			c0,4.953,4.009,8.959,8.963,8.959c3.855,0,7.062-2.449,8.332-5.848c4.654,4.72,11.109,7.671,18.26,7.671
			c14.146,0,25.618-11.474,25.622-25.622v-0.002c0-1.384-0.194-2.718-0.405-4.049c13.126-3.847,23.209-14.827,25.525-28.518
			c0.329-1.956,0.502-3.966,0.502-6.021S387.663,386.236,387.334,384.281z"/>
		<path fill="#FFFFFF" d="M275.605,433.246c-0.97-0.437-1.907-0.932-2.835-1.442c-0.562-0.306-1.11-0.633-1.654-0.96
			c-0.401-0.242-0.802-0.487-1.194-0.74c-0.236-0.152-0.468-0.312-0.705-0.469c-2.156-1.44-4.193-3.048-6.088-4.808
			c-0.097-0.093-0.194-0.191-0.295-0.286c-0.776-0.736-1.527-1.502-2.253-2.289c-0.194-0.209-0.388-0.418-0.578-0.631
			c-0.806-0.903-1.586-1.827-2.321-2.791c-5.995-7.932-9.619-17.851-9.619-28.529s3.624-20.597,9.619-28.529
			c0.734-0.964,1.515-1.888,2.321-2.793c0.189-0.211,0.384-0.419,0.578-0.628c0.726-0.787,1.477-1.555,2.257-2.291
			c0.097-0.093,0.194-0.192,0.291-0.285c1.895-1.759,3.932-3.367,6.088-4.808c0.236-0.156,0.469-0.314,0.705-0.468
			c0.393-0.253,0.793-0.498,1.194-0.741c0.544-0.327,1.092-0.654,1.649-0.959c0.933-0.508,1.869-1.006,2.839-1.443
			c7.155-3.348,10.526-5.529,10.526-10.484c0-4.953-4.008-8.959-8.961-8.959c-3.856,0-7.062,2.449-8.333,5.848
			c-4.654-4.719-11.109-7.67-18.26-7.67c-14.146,0-25.618,11.474-25.622,25.622c0,0.002,0,0.002,0,0.002
			c0,1.384,0.194,2.717,0.405,4.048c-13.125,3.848-23.208,14.828-25.524,28.518c-0.329,1.956-0.502,3.966-0.502,6.021
			s0.173,4.065,0.502,6.021c2.316,13.691,12.399,24.671,25.524,28.518c-0.211,1.331-0.405,2.665-0.405,4.049v0.002
			c0.004,14.148,11.476,25.622,25.622,25.622c7.151,0,13.606-2.951,18.26-7.671c1.27,3.398,4.476,5.848,8.333,5.848
			c4.953,0,8.961-4.006,8.961-8.959C286.132,438.775,282.761,436.595,275.605,433.246z"/>
		<path fill="#FFFFFF" d="M321.521,390.301c0-15.429-12.509-27.936-27.939-27.936c-15.424,0-27.934,12.507-27.934,27.936
			c0,15.429,12.51,27.934,27.934,27.934C309.013,418.235,321.521,405.73,321.521,390.301z"/>
	</g>
</g>
</svg>
